<svg xmlns="http://www.w3.org/2000/svg" viewBox="0 0 359.61 150"><defs><style>.cls-1{fill:#1a3f75;}.cls-2{font-size:12px;}.cls-13,.cls-2{font-family:MyriadPro-Regular, Myriad Pro;}.cls-3{letter-spacing:0em;}.cls-4{letter-spacing:0.01em;}.cls-5{letter-spacing:-0.04em;}.cls-6{letter-spacing:0em;}.cls-7{letter-spacing:0em;}.cls-8{letter-spacing:-0.01em;}.cls-9{letter-spacing:-0.01em;}.cls-10{letter-spacing:0.03em;}.cls-11{fill:#326cc9;}.cls-12,.cls-13{fill:#fff;}.cls-13{font-size:80px;}</style></defs><title>find button</title><g id="Layer_2_copy" data-name="Layer 2 copy"><polygon class="cls-1" points="278.24 4.73 6.47 3.62 6.47 76.81 6.47 150 271.63 150 359.61 74.29 278.24 4.73"/><text class="cls-2" transform="translate(37.88 77)"><tspan class="cls-3">h</tspan><tspan x="6.61" y="0">ttps://</tspan><tspan class="cls-4" x="36.85" y="0">ww</tspan><tspan class="cls-5" x="54.8" y="0">w</tspan><tspan x="63.17" y="0">.fl</tspan><tspan class="cls-6" x="71.93" y="0">a</tspan><tspan class="cls-7" x="77.66" y="0">ti</tspan><tspan class="cls-8" x="84.44" y="0">c</tspan><tspan x="89.75" y="0">on.</tspan><tspan class="cls-8" x="105.48" y="0">c</tspan><tspan x="110.78" y="0">om/f</tspan><tspan class="cls-9" x="135" y="0">r</tspan><tspan x="138.8" y="0">e</tspan><tspan class="cls-10" x="144.81" y="0">e</tspan><tspan x="151.16" y="0">-i</tspan><tspan class="cls-8" x="157.65" y="0">c</tspan><tspan x="162.96" y="0">on/loc</tspan><tspan class="cls-6" x="195.12" y="0">a</tspan><tspan class="cls-7" x="200.85" y="0">tion-pin_67347</tspan></text></g><g id="Layer_2" data-name="Layer 2"><polygon class="cls-11" points="266.61 0 0 0 0 72.33 0 144.67 266.61 144.67 351.26 72.33 266.61 0"/></g><g id="Layer_6" data-name="Layer 6"><path class="cls-12" d="M247.66,30a27.19,27.19,0,0,0-27.16,27.16c0,6,3.54,15.17,11.15,28.81,5.19,9.3,10.36,17.16,10.58,17.49l3.74,5.66a2,2,0,0,0,3.4,0l3.74-5.66c.22-.33,5.35-8.12,10.58-17.49,7.61-13.63,11.15-22.79,11.15-28.81A27.19,27.19,0,0,0,247.66,30Zm12.46,54c-5.16,9.24-10.21,16.91-10.42,17.23l-2,3.09-2-3.09c-.21-.32-5.3-8.06-10.42-17.24-7.06-12.65-10.64-21.67-10.64-26.82a23.09,23.09,0,0,1,46.19,0C270.75,62.31,267.17,71.34,260.11,84Z" transform="translate(21.88)"/><path class="cls-12" d="M247.66,41.93A15.06,15.06,0,1,0,262.72,57,15.08,15.08,0,0,0,247.66,41.93Zm0,26.05a11,11,0,1,1,11-11A11,11,0,0,1,247.66,68Z" transform="translate(21.88)"/></g><g id="Layer_5" data-name="Layer 5"><text class="cls-13" transform="translate(54.76 96.93)">FIND</text></g></svg>